<svg width="24" height="24" viewBox="0 0 24 24" fill="none" xmlns="http://www.w3.org/2000/svg">
  <circle cx="12" cy="12" r="3" stroke="#C9D2E0" stroke-width="1.6"/>
  <path d="M19.4 14.5a7.4 7.4 0 0 0 0-5l1.6-1.3-1.5-2.6-2 .6a7.4 7.4 0 0 0-4.3-2.5L12.5 2h-3l-.7 1.7a7.4 7.4 0 0 0-4.3 2.5l-2-.6-1.5 2.6L2.6 9.5a7.4 7.4 0 0 0 0 5l-1.6 1.3 1.5 2.6 2-.6a7.4 7.4 0 0 0 4.3 2.5l.7 1.7h3l.7-1.7a7.4 7.4 0 0 0 4.3-2.5l2 .6 1.5-2.6-1.6-1.3Z" stroke="#C9D2E0" stroke-width="1.6" stroke-linejoin="round"/>
</svg>
